{
	"asset":{
		"generator":"Khronos glTF Blender I/O v3.6.28",
		"version":"2.0"
	},
	"scene":0,
	"scenes":[
		{
			"name":"Scene",
			"nodes":[
				0
			]
		}
	],
	"nodes":[
		{
			"mesh":0,
			"name":"GothicBed_01"
		}
	],
	"materials":[
		{
			"doubleSided":true,
			"name":"GothicBed_01",
			"normalTexture":{
				"index":0
			},
			"pbrMetallicRoughness":{
				"baseColorTexture":{
					"index":1
				},
				"metallicRoughnessTexture":{
					"index":2
				}
			}
		}
	],
	"meshes":[
		{
			"name":"Plane.004",
			"primitives":[
				{
					"attributes":{
						"POSITION":0,
						"NORMAL":1,
						"TEXCOORD_0":2
					},
					"indices":3,
					"material":0
				}
			]
		}
	],
	"textures":[
		{
			"sampler":0,
			"source":0
		},
		{
			"sampler":0,
			"source":1
		},
		{
			"sampler":0,
			"source":2
		}
	],
	"images":[
		{
			"mimeType":"image/jpeg",
			"name":"GothicBed_01_nor_gl_4k",
			"uri":"GothicBed_01_nor_gl_4k.jpg"
		},
		{
			"mimeType":"image/jpeg",
			"name":"GothicBed_01_diff_4k",
			"uri":"GothicBed_01_diff_4k.jpg"
		},
		{
			"mimeType":"image/jpeg",
			"name":"GothicBed_01_arm_4k",
			"uri":"GothicBed_01_arm_4k.jpg"
		}
	],
	"accessors":[
		{
			"bufferView":0,
			"componentType":5126,
			"count":17201,
			"max":[
				0.782444417476654,
				1.5338401794433594,
				0.9868945479393005
			],
			"min":[
				-0.7113074660301208,
				-1.181181374931839e-07,
				-1.053105354309082
			],
			"type":"VEC3"
		},
		{
			"bufferView":1,
			"componentType":5126,
			"count":17201,
			"type":"VEC3"
		},
		{
			"bufferView":2,
			"componentType":5126,
			"count":17201,
			"type":"VEC2"
		},
		{
			"bufferView":3,
			"componentType":5123,
			"count":56235,
			"type":"SCALAR"
		}
	],
	"bufferViews":[
		{
			"buffer":0,
			"byteLength":206412,
			"byteOffset":0,
			"target":34962
		},
		{
			"buffer":0,
			"byteLength":206412,
			"byteOffset":206412,
			"target":34962
		},
		{
			"buffer":0,
			"byteLength":137608,
			"byteOffset":412824,
			"target":34962
		},
		{
			"buffer":0,
			"byteLength":112470,
			"byteOffset":550432,
			"target":34963
		}
	],
	"samplers":[
		{
			"magFilter":9729,
			"minFilter":9987
		}
	],
	"buffers":[
		{
			"byteLength":662904,
			"uri":"bed.bin"
		}
	]
}
