{
	"asset":{
		"generator":"Khronos glTF Blender I/O v3.6.28",
		"version":"2.0"
	},
	"scene":0,
	"scenes":[
		{
			"name":"Scene",
			"nodes":[
				0,
				1,
				2,
				3,
				4,
				5,
				6,
				7,
				8,
				9,
				10,
				11
			]
		}
	],
	"nodes":[
		{
			"mesh":0,
			"name":"Cylinder.001",
			"rotation":[
				-0.9955008625984192,
				-0.09431765228509903,
				0.003918479196727276,
				0.008177277632057667
			],
			"scale":[
				0.01858268678188324,
				0.09171002358198166,
				0.017532827332615852
			],
			"translation":[
				0.9330364465713501,
				-0.05419108271598816,
				-0.385016530752182
			]
		},
		{
			"mesh":1,
			"name":"Cylinder",
			"rotation":[
				0.007372425869107246,
				0.00527887511998415,
				-0.07998216152191162,
				0.996755063533783
			],
			"scale":[
				0.01858268305659294,
				0.09171002358198166,
				0.017532827332615852
			],
			"translation":[
				-0.9237000942230225,
				-0.0926026701927185,
				0.3690609037876129
			]
		},
		{
			"mesh":2,
			"name":"Cube.009",
			"rotation":[
				-0.03823151811957359,
				0.0042801471427083015,
				0.007399985566735268,
				0.9992323517799377
			],
			"scale":[
				0.295477032661438,
				0.1752317100763321,
				0.07053279876708984
			],
			"translation":[
				-0.0007586188148707151,
				0.407714307308197,
				-0.1548403799533844
			]
		},
		{
			"mesh":3,
			"name":"Cube.008",
			"rotation":[
				-0.03823151811957359,
				0.004280147608369589,
				0.007399986032396555,
				0.9992323517799377
			],
			"scale":[
				0.26119372248649597,
				0.1752317100763321,
				0.07053279876708984
			],
			"translation":[
				0.5516256093978882,
				0.4157036542892456,
				-0.15987862646579742
			]
		},
		{
			"mesh":4,
			"name":"Cube.007",
			"rotation":[
				-0.03823151811957359,
				0.004280147608369589,
				0.007399986032396555,
				0.9992323517799377
			],
			"scale":[
				0.26119372248649597,
				0.1752317100763321,
				0.07053279876708984
			],
			"translation":[
				-0.556474506855011,
				0.39967674016952515,
				-0.1497717648744583
			]
		},
		{
			"mesh":5,
			"name":"Cube.005",
			"rotation":[
				0.007195123936980963,
				-0.9999330043792725,
				-0.007804455701261759,
				0.004616238176822662
			],
			"scale":[
				-0.2768937051296234,
				-0.04190841689705849,
				-0.33395886421203613
			],
			"translation":[
				0.0017970406915992498,
				0.20151583850383759,
				0.10223503410816193
			]
		},
		{
			"mesh":6,
			"name":"Cube.006",
			"rotation":[
				0.007195123936980963,
				-0.9999330043792725,
				-0.007804455701261759,
				0.004616238176822662
			],
			"scale":[
				-0.2693383991718292,
				-0.04190841689705849,
				-0.33395886421203613
			],
			"translation":[
				0.5541012287139893,
				0.2075488567352295,
				0.0978061854839325
			]
		},
		{
			"mesh":7,
			"name":"Cube.002",
			"rotation":[
				0.007195123936980963,
				-0.9999330043792725,
				-0.007804455701261759,
				0.004616238176822662
			],
			"scale":[
				-0.2693383991718292,
				-0.04190841689705849,
				-0.33395886421203613
			],
			"translation":[
				-0.552319347858429,
				0.19154620170593262,
				0.10789772868156433
			]
		},
		{
			"mesh":8,
			"name":"Cube.003",
			"rotation":[
				0.007804455701261759,
				0.004616238176822662,
				0.0071951234713196754,
				0.9999330043792725
			],
			"scale":[
				0.09027113765478134,
				0.18139883875846863,
				0.4208182692527771
			],
			"translation":[
				-0.9088128805160522,
				0.21475273370742798,
				0.016372259706258774
			]
		},
		{
			"mesh":9,
			"name":"Cube.004",
			"rotation":[
				0.0004308603529352695,
				0.7103236317634583,
				0.010606303811073303,
				0.7037951946258545
			],
			"scale":[
				0.09027113765478134,
				0.20977963507175446,
				0.8237949013710022
			],
			"translation":[
				-0.0009719121735543013,
				0.27335330843925476,
				-0.3213343620300293
			]
		},
		{
			"mesh":10,
			"name":"Cube.001",
			"rotation":[
				0.007804455701261759,
				0.004616238176822662,
				0.0071951234713196754,
				0.9999330043792725
			],
			"scale":[
				0.09027113765478134,
				0.18139883875846863,
				0.4208182692527771
			],
			"translation":[
				0.9115163683891296,
				0.24108098447322845,
				-0.00023075193166732788
			]
		},
		{
			"mesh":11,
			"name":"Cube",
			"rotation":[
				0.007804456632584333,
				0.004616238176822662,
				0.007195123936980963,
				0.9999330043792725
			],
			"translation":[
				0.00324458465911448,
				-0.0005923658609390259,
				-0.003139309585094452
			]
		}
	],
	"materials":[
		{
			"doubleSided":true,
			"name":"Material",
			"pbrMetallicRoughness":{
				"baseColorFactor":[
					0.800000011920929,
					0.800000011920929,
					0.800000011920929,
					1
				],
				"metallicFactor":0,
				"roughnessFactor":0.5
			}
		}
	],
	"meshes":[
		{
			"name":"Cylinder.001",
			"primitives":[
				{
					"attributes":{
						"POSITION":0,
						"NORMAL":1
					},
					"indices":2
				}
			]
		},
		{
			"name":"Cylinder",
			"primitives":[
				{
					"attributes":{
						"POSITION":3,
						"NORMAL":4
					},
					"indices":2
				}
			]
		},
		{
			"name":"Cube.014",
			"primitives":[
				{
					"attributes":{
						"POSITION":5,
						"NORMAL":6
					},
					"indices":7
				}
			]
		},
		{
			"name":"Cube.013",
			"primitives":[
				{
					"attributes":{
						"POSITION":8,
						"NORMAL":9
					},
					"indices":7
				}
			]
		},
		{
			"name":"Cube.012",
			"primitives":[
				{
					"attributes":{
						"POSITION":10,
						"NORMAL":11
					},
					"indices":7
				}
			]
		},
		{
			"name":"Cube.011",
			"primitives":[
				{
					"attributes":{
						"POSITION":12,
						"NORMAL":13
					},
					"indices":14
				}
			]
		},
		{
			"name":"Cube.010",
			"primitives":[
				{
					"attributes":{
						"POSITION":15,
						"NORMAL":16
					},
					"indices":14
				}
			]
		},
		{
			"name":"Cube.009",
			"primitives":[
				{
					"attributes":{
						"POSITION":17,
						"NORMAL":18
					},
					"indices":14
				}
			]
		},
		{
			"name":"Cube.005",
			"primitives":[
				{
					"attributes":{
						"POSITION":19,
						"NORMAL":20
					},
					"indices":21
				}
			]
		},
		{
			"name":"Cube.004",
			"primitives":[
				{
					"attributes":{
						"POSITION":22,
						"NORMAL":23
					},
					"indices":24
				}
			]
		},
		{
			"name":"Cube.001",
			"primitives":[
				{
					"attributes":{
						"POSITION":25,
						"NORMAL":26
					},
					"indices":21
				}
			]
		},
		{
			"name":"Cube",
			"primitives":[
				{
					"attributes":{
						"POSITION":27,
						"NORMAL":28
					},
					"indices":29,
					"material":0
				}
			]
		}
	],
	"accessors":[
		{
			"bufferView":0,
			"componentType":5126,
			"count":384,
			"max":[
				1,
				1,
				1
			],
			"min":[
				-1,
				-1,
				-43.11499786376953
			],
			"type":"VEC3"
		},
		{
			"bufferView":1,
			"componentType":5126,
			"count":384,
			"type":"VEC3"
		},
		{
			"bufferView":2,
			"componentType":5123,
			"count":744,
			"type":"SCALAR"
		},
		{
			"bufferView":3,
			"componentType":5126,
			"count":384,
			"max":[
				1,
				1,
				1
			],
			"min":[
				-1,
				-1,
				-43.11499786376953
			],
			"type":"VEC3"
		},
		{
			"bufferView":4,
			"componentType":5126,
			"count":384,
			"type":"VEC3"
		},
		{
			"bufferView":5,
			"componentType":5126,
			"count":96,
			"max":[
				1,
				1,
				1
			],
			"min":[
				-1,
				-1,
				-1
			],
			"type":"VEC3"
		},
		{
			"bufferView":6,
			"componentType":5126,
			"count":96,
			"type":"VEC3"
		},
		{
			"bufferView":7,
			"componentType":5123,
			"count":564,
			"type":"SCALAR"
		},
		{
			"bufferView":8,
			"componentType":5126,
			"count":96,
			"max":[
				1,
				1,
				1
			],
			"min":[
				-1,
				-1,
				-1
			],
			"type":"VEC3"
		},
		{
			"bufferView":9,
			"componentType":5126,
			"count":96,
			"type":"VEC3"
		},
		{
			"bufferView":10,
			"componentType":5126,
			"count":96,
			"max":[
				1,
				1,
				1
			],
			"min":[
				-1,
				-1,
				-1
			],
			"type":"VEC3"
		},
		{
			"bufferView":11,
			"componentType":5126,
			"count":96,
			"type":"VEC3"
		},
		{
			"bufferView":12,
			"componentType":5126,
			"count":56,
			"max":[
				1,
				1,
				1
			],
			"min":[
				-1,
				-1,
				-1
			],
			"type":"VEC3"
		},
		{
			"bufferView":13,
			"componentType":5126,
			"count":56,
			"type":"VEC3"
		},
		{
			"bufferView":14,
			"componentType":5123,
			"count":324,
			"type":"SCALAR"
		},
		{
			"bufferView":15,
			"componentType":5126,
			"count":56,
			"max":[
				1,
				1,
				1
			],
			"min":[
				-1,
				-1,
				-1
			],
			"type":"VEC3"
		},
		{
			"bufferView":16,
			"componentType":5126,
			"count":56,
			"type":"VEC3"
		},
		{
			"bufferView":17,
			"componentType":5126,
			"count":56,
			"max":[
				1,
				1,
				1
			],
			"min":[
				-1,
				-1,
				-1
			],
			"type":"VEC3"
		},
		{
			"bufferView":18,
			"componentType":5126,
			"count":56,
			"type":"VEC3"
		},
		{
			"bufferView":19,
			"componentType":5126,
			"count":24,
			"max":[
				1,
				1,
				1
			],
			"min":[
				-1,
				-1,
				-1
			],
			"type":"VEC3"
		},
		{
			"bufferView":20,
			"componentType":5126,
			"count":24,
			"type":"VEC3"
		},
		{
			"bufferView":21,
			"componentType":5123,
			"count":132,
			"type":"SCALAR"
		},
		{
			"bufferView":22,
			"componentType":5126,
			"count":268,
			"max":[
				1,
				1,
				1
			],
			"min":[
				-1,
				-1,
				-1
			],
			"type":"VEC3"
		},
		{
			"bufferView":23,
			"componentType":5126,
			"count":268,
			"type":"VEC3"
		},
		{
			"bufferView":24,
			"componentType":5123,
			"count":612,
			"type":"SCALAR"
		},
		{
			"bufferView":25,
			"componentType":5126,
			"count":24,
			"max":[
				1,
				1,
				1
			],
			"min":[
				-1,
				-1,
				-1
			],
			"type":"VEC3"
		},
		{
			"bufferView":26,
			"componentType":5126,
			"count":24,
			"type":"VEC3"
		},
		{
			"bufferView":27,
			"componentType":5126,
			"count":48,
			"max":[
				1.0000003576278687,
				0.15341432392597198,
				0.4250691533088684
			],
			"min":[
				-1.0000003576278687,
				0.002047136425971985,
				-0.4151040017604828
			],
			"type":"VEC3"
		},
		{
			"bufferView":28,
			"componentType":5126,
			"count":48,
			"type":"VEC3"
		},
		{
			"bufferView":29,
			"componentType":5123,
			"count":168,
			"type":"SCALAR"
		}
	],
	"bufferViews":[
		{
			"buffer":0,
			"byteLength":4608,
			"byteOffset":0,
			"target":34962
		},
		{
			"buffer":0,
			"byteLength":4608,
			"byteOffset":4608,
			"target":34962
		},
		{
			"buffer":0,
			"byteLength":1488,
			"byteOffset":9216,
			"target":34963
		},
		{
			"buffer":0,
			"byteLength":4608,
			"byteOffset":10704,
			"target":34962
		},
		{
			"buffer":0,
			"byteLength":4608,
			"byteOffset":15312,
			"target":34962
		},
		{
			"buffer":0,
			"byteLength":1152,
			"byteOffset":19920,
			"target":34962
		},
		{
			"buffer":0,
			"byteLength":1152,
			"byteOffset":21072,
			"target":34962
		},
		{
			"buffer":0,
			"byteLength":1128,
			"byteOffset":22224,
			"target":34963
		},
		{
			"buffer":0,
			"byteLength":1152,
			"byteOffset":23352,
			"target":34962
		},
		{
			"buffer":0,
			"byteLength":1152,
			"byteOffset":24504,
			"target":34962
		},
		{
			"buffer":0,
			"byteLength":1152,
			"byteOffset":25656,
			"target":34962
		},
		{
			"buffer":0,
			"byteLength":1152,
			"byteOffset":26808,
			"target":34962
		},
		{
			"buffer":0,
			"byteLength":672,
			"byteOffset":27960,
			"target":34962
		},
		{
			"buffer":0,
			"byteLength":672,
			"byteOffset":28632,
			"target":34962
		},
		{
			"buffer":0,
			"byteLength":648,
			"byteOffset":29304,
			"target":34963
		},
		{
			"buffer":0,
			"byteLength":672,
			"byteOffset":29952,
			"target":34962
		},
		{
			"buffer":0,
			"byteLength":672,
			"byteOffset":30624,
			"target":34962
		},
		{
			"buffer":0,
			"byteLength":672,
			"byteOffset":31296,
			"target":34962
		},
		{
			"buffer":0,
			"byteLength":672,
			"byteOffset":31968,
			"target":34962
		},
		{
			"buffer":0,
			"byteLength":288,
			"byteOffset":32640,
			"target":34962
		},
		{
			"buffer":0,
			"byteLength":288,
			"byteOffset":32928,
			"target":34962
		},
		{
			"buffer":0,
			"byteLength":264,
			"byteOffset":33216,
			"target":34963
		},
		{
			"buffer":0,
			"byteLength":3216,
			"byteOffset":33480,
			"target":34962
		},
		{
			"buffer":0,
			"byteLength":3216,
			"byteOffset":36696,
			"target":34962
		},
		{
			"buffer":0,
			"byteLength":1224,
			"byteOffset":39912,
			"target":34963
		},
		{
			"buffer":0,
			"byteLength":288,
			"byteOffset":41136,
			"target":34962
		},
		{
			"buffer":0,
			"byteLength":288,
			"byteOffset":41424,
			"target":34962
		},
		{
			"buffer":0,
			"byteLength":576,
			"byteOffset":41712,
			"target":34962
		},
		{
			"buffer":0,
			"byteLength":576,
			"byteOffset":42288,
			"target":34962
		},
		{
			"buffer":0,
			"byteLength":336,
			"byteOffset":42864,
			"target":34963
		}
	],
	"buffers":[
		{
			"byteLength":43200,
			"uri":"newsofas.bin"
		}
	]
}
